<?xml version="1.0" encoding="UTF-8"?>
<svg width="30px" height="29px" viewBox="0 0 30 29" version="1.1" xmlns="http://www.w3.org/2000/svg" xmlns:xlink="http://www.w3.org/1999/xlink">
    <!-- Generator: Sketch 55.2 (78181) - https://sketchapp.com -->
    <title>maxfun</title>
    <desc>Created with Sketch.</desc>
    <g id="Page-1" stroke="none" stroke-width="1" fill="none" fill-rule="evenodd">
        <path d="M17.968099,15.9789958 C18.1606526,16.6552926 18.0776167,17.6057463 17.3050823,18.5829059 L12.7280871,24.3788633 L12.6375253,22.6862626 L12.6545088,22.6543759 L12.6529208,22.6246806 L15.267441,17.7261909 L15.2801197,17.7053617 C14.0140652,18.698825 12.937285,19.3970568 12.0561183,19.8190749 L9.69426565,17.4545054 C10.106322,16.544359 10.8036481,15.4286371 11.8116014,14.1200186 C11.7776776,14.1358774 11.7447165,14.1537187 11.712889,14.1734501 L6.81439929,16.7870647 L5.12179859,16.6965028 L5.13896105,16.6829312 L5.12179859,16.6820129 L10.917756,12.1023009 C12.1104554,11.1568354 13.2633076,11.238341 13.9271258,11.6005884 C13.9289985,11.6016411 13.9308819,11.602714 13.9327757,11.603807 C14.6081935,10.8560619 15.3634071,10.0643842 16.1984167,9.22877391 C22.1121045,3.30965235 26.4735625,0.750374887 27.582945,1.86066299 C28.688705,2.96913985 26.1321444,7.33512593 20.2121172,13.2451913 C19.3704959,14.0837939 18.5756648,14.8448152 17.8276241,15.5282552 C17.8812558,15.663912 17.9304441,15.8149685 17.968099,15.9789958 Z M10.4396086,20.5643545 L10.1217175,20.7102034 L8.82487203,19.360832 C4.8865744,16.7559788 2.04542008,27.0414055 2.10518386,27.2469567 C2.11215497,27.2659333 2.11671867,27.2857094 2.11876813,27.3058218 C2.11733279,27.3183101 2.12247431,27.3306498 2.13235241,27.3384241 C2.14593668,27.3511028 2.15137039,27.3511028 2.16314343,27.3511028 C2.18309331,27.353628 2.20278809,27.3578699 2.22200862,27.3637814 C2.42577275,27.4226466 12.4781365,24.6514545 10.1235288,20.7102034 L10.4396086,20.5643545 Z M11.416053,20.1163603 C14.2360872,25.3261937 1.0066331,28.975772 0.734983289,28.8988045 C0.709870526,28.886639 0.682286452,28.8804403 0.654383256,28.8806922 C0.636270888,28.8806922 0.63536527,28.8761641 0.61363043,28.8589573 C0.591895589,28.8417506 0.591895589,28.8381281 0.591895589,28.8182045 C0.591699361,28.7915918 0.586793711,28.7652239 0.577405696,28.7403213 C0.497711281,28.4686358 4.2243308,14.968583 9.42076891,18.0540248 L9.27397728,18.3769216 L9.69336003,17.4581279 L12.0561183,19.8226974 L11.4160553,20.1163593 Z M2.64010939,20.944357 C1.7350445,19.1035649 1.22673405,17.0324946 1.22673405,14.8427021 C1.22673405,7.19526782 7.42620442,0.99579746 15.0736387,0.99579746 C17.5589247,0.99579746 19.9753246,1.66392865 22.0827004,2.90072264 C21.4382869,3.35960986 20.7558598,3.88574036 20.0415552,4.47460768 C19.8919083,4.40493091 19.7402922,4.33824636 19.5867664,4.27464327 C15.2910647,2.49500803 10.3463163,3.47832654 7.05831866,6.76606521 C3.94898228,9.87515664 2.90032077,14.4660057 4.30026273,18.5886646 C3.71954994,19.232105 3.16728458,20.0239363 2.64010939,20.944357 Z M26.63707,7.22526571 C28.1155353,9.46968524 28.9205433,12.1146944 28.9205433,14.8427021 C28.9205433,22.4901363 22.7210729,28.6896067 15.0736387,28.6896067 C12.6207312,28.6896067 10.3167902,28.0518054 8.31860905,26.9329961 C9.17429083,26.4497474 9.92319257,25.9444905 10.5497621,25.4147364 C11.9830431,26.0469198 13.5568076,26.3911473 15.186841,26.3911473 L15.186841,26.3920529 C18.2357483,26.3920529 21.1597804,25.1808792 23.3156835,23.0249761 C25.4715866,20.869073 26.6827603,17.9450409 26.6827603,14.8961336 C26.6829221,12.8424455 26.1366632,10.8780334 25.1565095,9.17132924 C25.7098213,8.49086917 26.2046807,7.84035171 26.63707,7.22526571 Z M3.7108452,25.7481583 C3.70178901,25.7409133 3.69997778,25.7381965 3.69997778,25.7291403 C3.70012842,25.715621 3.69702218,25.7022642 3.69092159,25.6901987 C3.65016877,25.5480166 5.75301458,17.9516899 8.58850564,20.8741203 C11.4004506,23.7404024 3.91370371,25.8106459 3.76971039,25.7644594 C3.75674776,25.7589763 3.74298792,25.7556128 3.72895756,25.7544976 C3.71899576,25.7608369 3.71899576,25.7581201 3.7108452,25.7481583 Z M27.8075383,0.744941177 C27.9883403,0.562326701 28.2615002,0.506928836 28.4991609,0.604677503 C28.7368216,0.702426169 28.8919594,0.933980777 28.8919594,1.19095822 C28.8919594,1.44793565 28.7368216,1.67949026 28.4991609,1.77723893 C28.2615002,1.87498759 27.9883403,1.81958973 27.8075383,1.63697525 C27.6886894,1.51898107 27.6218484,1.35843271 27.6218484,1.19095822 C27.6218484,1.02348372 27.6886894,0.862935361 27.8075383,0.744941177 Z M23.9541322,3.75702782 C23.4781864,4.23538532 23.4781864,5.00840137 23.9541322,5.48675887 C24.3039873,5.83683465 24.8302929,5.94165273 25.2875746,5.75232488 C25.7448564,5.56299703 26.0430337,5.11681923 26.0430337,4.62189334 C26.0430337,4.12696746 25.7448564,3.68078966 25.2875746,3.49146181 C24.8302929,3.30213396 24.3039873,3.40695204 23.9541322,3.75702782 Z M20.8016747,6.0210737 L20.8016747,6.02016808 C20.4518781,6.36780709 20.255182,6.84060365 20.255182,7.3337675 C20.255182,7.82693135 20.4518781,8.29972791 20.8016747,8.64736692 C21.5263023,9.36944109 22.698874,9.3680614 23.4218003,8.64428399 C24.1447266,7.92050659 24.1447266,6.74793404 23.4218003,6.02415663 C22.698874,5.30037922 21.5263023,5.29899954 20.8016747,6.0210737 Z M29.0074826,-0.0103445297 C29.131749,-0.131388886 29.3303542,-0.129649909 29.452482,-0.00644813867 C29.5746097,0.116753632 29.5746097,0.315366485 29.452482,0.438568256 C29.3303542,0.561770026 29.131749,0.563509003 29.0074826,0.442464647 C28.9470893,0.38260322 28.9131157,0.30109382 28.9131157,0.216060058 C28.9131157,0.131026297 28.9470893,0.0495168965 29.0074826,-0.0103445297 Z" id="maxfun" fill="#FFFFFF" fill-rule="nonzero"></path>
    </g>
</svg>