<?xml version="1.0" encoding="UTF-8"?>
<svg width="30px" height="24px" viewBox="0 0 30 24" version="1.1" xmlns="http://www.w3.org/2000/svg" xmlns:xlink="http://www.w3.org/1999/xlink">
    <!-- Generator: Sketch 55.2 (78181) - https://sketchapp.com -->
    <title>email</title>
    <desc>Created with Sketch.</desc>
    <g id="Page-1" stroke="none" stroke-width="1" fill="none" fill-rule="evenodd">
        <path d="M27.857,20.893 C27.8491344,21.1857047 27.6137047,21.4211344 27.321,21.429 L2.68,21.429 C2.3872953,21.4211344 2.15186558,21.1857047 2.144,20.893 L2.144,8.036 C2.494,8.438 2.881,8.805 3.299,9.141 C5.693,10.981 8.103,12.857 10.429,14.799 C11.686,15.853 13.242,17.143 14.986,17.143 L15.018,17.143 C16.758,17.143 18.316,15.853 19.57,14.799 C21.9100439,12.866049 24.2881778,10.9796784 26.703,9.141 C27.120274,8.80721873 27.5068179,8.436739 27.858,8.034 L27.858,20.894 L27.856,20.894 L27.857,20.893 Z M27.857,3.298 C27.857,4.721 26.484,6.579 25.397,7.432 C23.152,9.192 20.915,10.961 18.684,12.739 C17.794,13.462 16.187,15 15.015,15 L14.981,15 C13.809,15 12.203,13.46 11.316,12.74 C9.086,10.963 6.848,9.194 4.603,7.434 C3.096,6.244 2.141,4.586 2.141,2.679 C2.141,2.394 2.392,2.143 2.678,2.143 L27.318,2.143 C27.956,2.143 27.855,2.88 27.855,3.298 L27.857,3.298 L27.857,3.298 Z M30,2.68 C29.9961532,1.20147319 28.7985268,0.00384677205 27.32,0 L2.682,0 C1.20291943,0.00329498758 0.00439836628,1.2009223 0,2.68 L0,20.893 C0.00439835149,22.3709731 1.20202399,23.567705 2.68,23.571 L27.319,23.571 C28.796976,23.567705 29.9946016,22.3709731 29.999,20.893 L29.999,2.68 L30,2.68 Z" id="email" fill="#FFFFFF" fill-rule="nonzero"></path>
    </g>
</svg>